<svg width="20" height="20" viewBox="0 0 20 20" fill="none" xmlns="http://www.w3.org/2000/svg">
<path d="M8.94713 17.9141C9.19443 18.0569 9.47495 18.1321 9.7605 18.1321C10.0461 18.1321 10.3266 18.0569 10.5739 17.9141L16.2674 14.6607C16.5145 14.518 16.7197 14.3129 16.8625 14.0659C17.0052 13.819 17.0805 13.5388 17.0808 13.2535V6.74658C17.0805 6.46131 17.0052 6.18114 16.8625 5.93416C16.7197 5.68718 16.5145 5.48209 16.2674 5.33946L10.5739 2.08598C10.3266 1.94321 10.0461 1.86804 9.7605 1.86804C9.47495 1.86804 9.19443 1.94321 8.94713 2.08598L3.25355 5.33946C3.0065 5.48209 2.8013 5.68718 2.65854 5.93416C2.51578 6.18114 2.44048 6.46131 2.44019 6.74658V13.2535C2.44048 13.5388 2.51578 13.819 2.65854 14.0659C2.8013 14.3129 3.0065 14.518 3.25355 14.6607L8.94713 17.9141Z" stroke="#2B7FFF" stroke-width="1.62674" stroke-linecap="round" stroke-linejoin="round"/>
<path d="M9.7605 18.1337V10" stroke="#2B7FFF" stroke-width="1.62674" stroke-linecap="round" stroke-linejoin="round"/>
<path d="M2.67603 5.93311L9.76046 9.99995L16.8449 5.93311" stroke="#2B7FFF" stroke-width="1.62674" stroke-linecap="round" stroke-linejoin="round"/>
<path d="M6.10034 3.71265L13.4207 7.90149" stroke="#2B7FFF" stroke-width="1.62674" stroke-linecap="round" stroke-linejoin="round"/>
</svg>
