<svg width="18" height="20" viewBox="0 0 18 20" fill="none" xmlns="http://www.w3.org/2000/svg">
<path d="M7.91094 16.9977C8.1296 17.124 8.37764 17.1904 8.63013 17.1904C8.88261 17.1904 9.13065 17.124 9.34931 16.9977L14.3836 14.121C14.602 13.9949 14.7835 13.8135 14.9097 13.5951C15.0359 13.3768 15.1025 13.129 15.1028 12.8768V7.12332C15.1025 6.87109 15.0359 6.62335 14.9097 6.40497C14.7835 6.1866 14.602 6.00525 14.3836 5.87913L9.34931 3.0024C9.13065 2.87615 8.88261 2.80969 8.63013 2.80969C8.37764 2.80969 8.1296 2.87615 7.91094 3.0024L2.87665 5.87913C2.65821 6.00525 2.47677 6.1866 2.35054 6.40497C2.22431 6.62335 2.15773 6.87109 2.15747 7.12332V12.8768C2.15773 13.129 2.22431 13.3768 2.35054 13.5951C2.47677 13.8135 2.65821 13.9949 2.87665 14.121L7.91094 16.9977Z" stroke="#FF6900" stroke-width="1.43837" stroke-linecap="round" stroke-linejoin="round"/>
<path d="M8.63013 17.1918V10" stroke="#FF6900" stroke-width="1.43837" stroke-linecap="round" stroke-linejoin="round"/>
<path d="M2.36621 6.40405L8.6303 9.99997L14.8944 6.40405" stroke="#FF6900" stroke-width="1.43837" stroke-linecap="round" stroke-linejoin="round"/>
<path d="M5.3938 4.44067L11.8665 8.14447" stroke="#FF6900" stroke-width="1.43837" stroke-linecap="round" stroke-linejoin="round"/>
</svg>
