<svg width="64" height="64" viewBox="0 0 64 64" fill="none" xmlns="http://www.w3.org/2000/svg">
<path d="M29.3333 53.3333C24.6508 53.3475 20.134 51.6013 16.6787 48.4411C13.2234 45.2809 11.082 40.9375 10.6793 36.2723C10.2765 31.6071 11.6418 26.961 14.5044 23.2553C17.367 19.5497 21.5177 17.0552 26.1333 16.2667C41.3333 13.3333 45.3333 11.9467 50.6667 5.33333C53.3333 10.6667 56 16.48 56 26.6667C56 41.3333 43.2533 53.3333 29.3333 53.3333Z" stroke="#00A63E" stroke-width="5.33333" stroke-linecap="round" stroke-linejoin="round"/>
<path d="M5.33334 56C5.33334 48 10.2667 41.7067 18.88 40C25.3333 38.72 32 34.6667 34.6667 32" stroke="#00A63E" stroke-width="5.33333" stroke-linecap="round" stroke-linejoin="round"/>
</svg>
