<svg width="15" height="20" viewBox="0 0 15 20" fill="none" xmlns="http://www.w3.org/2000/svg">
<path d="M12.3957 8.76046C12.3957 11.8551 8.96264 15.078 7.80983 16.0734C7.70244 16.1541 7.57171 16.1978 7.43734 16.1978C7.30297 16.1978 7.17224 16.1541 7.06484 16.0734C5.91203 15.078 2.479 11.8551 2.479 8.76046C2.479 7.44543 3.0014 6.18425 3.93127 5.25439C4.86113 4.32452 6.12231 3.80212 7.43734 3.80212C8.75237 3.80212 10.0135 4.32452 10.9434 5.25439C11.8733 6.18425 12.3957 7.44543 12.3957 8.76046Z" stroke="#AD46FF" stroke-width="1.23958" stroke-linecap="round" stroke-linejoin="round"/>
<path d="M7.4375 10.6198C8.4644 10.6198 9.29688 9.78728 9.29688 8.76038C9.29688 7.73347 8.4644 6.901 7.4375 6.901C6.4106 6.901 5.57812 7.73347 5.57812 8.76038C5.57812 9.78728 6.4106 10.6198 7.4375 10.6198Z" stroke="#AD46FF" stroke-width="1.23958" stroke-linecap="round" stroke-linejoin="round"/>
</svg>
