<svg width="64" height="64" viewBox="0 0 64 64" fill="none" xmlns="http://www.w3.org/2000/svg">
<path d="M53.3334 26.6666C53.3334 39.9813 38.5627 53.8479 33.6027 58.1306C33.1407 58.478 32.5782 58.6659 32.0001 58.6659C31.422 58.6659 30.8595 58.478 30.3974 58.1306C25.4374 53.8479 10.6667 39.9813 10.6667 26.6666C10.6667 21.0086 12.9144 15.5824 16.9151 11.5816C20.9159 7.58086 26.3421 5.33325 32.0001 5.33325C37.658 5.33325 43.0843 7.58086 47.085 11.5816C51.0858 15.5824 53.3334 21.0086 53.3334 26.6666Z" stroke="#99A1AF" stroke-width="5.33333" stroke-linecap="round" stroke-linejoin="round"/>
<path d="M32 34.6667C36.4183 34.6667 40 31.085 40 26.6667C40 22.2485 36.4183 18.6667 32 18.6667C27.5817 18.6667 24 22.2485 24 26.6667C24 31.085 27.5817 34.6667 32 34.6667Z" stroke="#99A1AF" stroke-width="5.33333" stroke-linecap="round" stroke-linejoin="round"/>
</svg>
