<svg width="736" height="28" viewBox="0 0 736 28" fill="none" xmlns="http://www.w3.org/2000/svg">
<path d="M308.99 21H306.805C306.489 21.0009 306.179 20.9203 305.904 20.7659C305.629 20.6116 305.398 20.3887 305.235 20.119C305.077 19.8481 304.994 19.5407 304.994 19.2275C304.993 18.9144 305.075 18.6066 305.231 18.335L309.186 11.5" stroke="white" stroke-width="2" stroke-linecap="round" stroke-linejoin="round"/>
<path d="M312.99 21H321.193C321.506 20.9975 321.814 20.9144 322.087 20.7585C322.359 20.6027 322.587 20.3793 322.749 20.11C322.903 19.8398 322.985 19.5339 322.985 19.2225C322.985 18.9111 322.903 18.6051 322.749 18.335L321.523 16.215" stroke="white" stroke-width="2" stroke-linecap="round" stroke-linejoin="round"/>
<path d="M315.99 18L312.99 21L315.99 24" stroke="white" stroke-width="2" stroke-linecap="round" stroke-linejoin="round"/>
<path d="M310.283 15.596L309.186 11.5L305.09 12.598" stroke="white" stroke-width="2" stroke-linecap="round" stroke-linejoin="round"/>
<path d="M311.334 7.811L312.427 5.919C312.584 5.6454 312.809 5.41701 313.08 5.25599C313.351 5.09497 313.659 5.00679 313.975 5C314.287 4.99942 314.595 5.08116 314.866 5.23703C315.138 5.39289 315.363 5.6174 315.521 5.888L319.464 12.731" stroke="white" stroke-width="2" stroke-linecap="round" stroke-linejoin="round"/>
<path d="M315.368 11.633L319.464 12.731L320.561 8.63501" stroke="white" stroke-width="2" stroke-linecap="round" stroke-linejoin="round"/>
<path d="M346.931 16.6062C347.68 16.6062 348.406 16.4988 349.109 16.2839C349.812 16.0626 350.355 15.7826 350.74 15.4441V13.5398H347.38V11.4109H353.376V16.4695C352.647 17.2182 351.697 17.8041 350.525 18.2273C349.359 18.6505 348.135 18.8621 346.853 18.8621C345.362 18.8621 344.096 18.5854 343.054 18.032C342.019 17.4721 341.231 16.6615 340.691 15.6003C340.15 14.5326 339.88 13.2403 339.88 11.7234C339.88 9.45776 340.486 7.72274 341.697 6.51831C342.908 5.30737 344.649 4.7019 346.921 4.7019C348.536 4.7019 349.857 5.00138 350.886 5.60034C351.915 6.19279 352.647 7.08797 353.083 8.28589L350.427 9.08667C350.141 8.39006 349.691 7.86271 349.079 7.50464C348.467 7.14657 347.748 6.96753 346.921 6.96753C345.567 6.96753 344.538 7.37769 343.835 8.198C343.132 9.01831 342.781 10.1934 342.781 11.7234C342.781 13.2794 343.142 14.4838 343.865 15.3367C344.594 16.183 345.616 16.6062 346.931 16.6062ZM358.767 13.4812V18.6667H356.023V10.5808C356.023 10.0014 356.013 9.51961 355.993 9.1355C355.98 8.74487 355.964 8.39982 355.945 8.10034H358.562C358.575 8.15894 358.588 8.28914 358.601 8.49097C358.614 8.69279 358.627 8.92065 358.64 9.17456C358.653 9.42196 358.663 9.65633 358.669 9.87769C358.682 10.099 358.689 10.2585 358.689 10.3562H358.728C358.988 9.62703 359.226 9.10295 359.441 8.78394C359.649 8.47795 359.896 8.25334 360.183 8.11011C360.469 7.96688 360.827 7.89526 361.257 7.89526C361.609 7.89526 361.892 7.94409 362.107 8.04175V10.3367C361.671 10.239 361.28 10.1902 360.935 10.1902C360.251 10.1902 359.717 10.4669 359.333 11.0203C358.956 11.5736 358.767 12.394 358.767 13.4812ZM366.081 13.9109C366.081 14.9395 366.27 15.7175 366.648 16.2449C367.032 16.7657 367.576 17.0261 368.279 17.0261C368.76 17.0261 369.154 16.922 369.46 16.7136C369.773 16.4988 369.991 16.183 370.115 15.7664L372.702 15.991C371.954 17.905 370.434 18.8621 368.142 18.8621C366.553 18.8621 365.333 18.3933 364.48 17.4558C363.627 16.5118 363.201 15.1381 363.201 13.3347C363.201 11.5899 363.633 10.2488 364.499 9.31128C365.365 8.37378 366.592 7.90503 368.181 7.90503C369.698 7.90503 370.857 8.40959 371.658 9.4187C372.458 10.4213 372.859 11.8927 372.859 13.8328V13.9109H366.081ZM370.202 12.1921C370.15 11.3393 369.945 10.7013 369.587 10.2781C369.229 9.84839 368.747 9.63354 368.142 9.63354C367.497 9.63354 366.999 9.85815 366.648 10.3074C366.303 10.7566 366.12 11.3848 366.101 12.1921H370.202ZM377.214 13.9109C377.214 14.9395 377.403 15.7175 377.781 16.2449C378.165 16.7657 378.708 17.0261 379.411 17.0261C379.893 17.0261 380.287 16.922 380.593 16.7136C380.906 16.4988 381.124 16.183 381.247 15.7664L383.835 15.991C383.087 17.905 381.566 18.8621 379.275 18.8621C377.686 18.8621 376.465 18.3933 375.613 17.4558C374.76 16.5118 374.333 15.1381 374.333 13.3347C374.333 11.5899 374.766 10.2488 375.632 9.31128C376.498 8.37378 377.725 7.90503 379.314 7.90503C380.831 7.90503 381.99 8.40959 382.79 9.4187C383.591 10.4213 383.992 11.8927 383.992 13.8328V13.9109H377.214ZM381.335 12.1921C381.283 11.3393 381.078 10.7013 380.72 10.2781C380.362 9.84839 379.88 9.63354 379.275 9.63354C378.63 9.63354 378.132 9.85815 377.781 10.3074C377.436 10.7566 377.253 11.3848 377.234 12.1921H381.335ZM388.826 13.0027V18.6667H386.081V10.4636C386.081 9.89722 386.072 9.43498 386.052 9.0769C386.039 8.71232 386.023 8.3868 386.003 8.10034H388.62C388.633 8.17847 388.65 8.36401 388.669 8.65698C388.689 8.94344 388.705 9.23966 388.718 9.54565C388.738 9.84513 388.747 10.0632 388.747 10.2H388.786C389.158 9.39266 389.623 8.80672 390.183 8.44214C390.743 8.07756 391.41 7.89526 392.185 7.89526C393.305 7.89526 394.164 8.24032 394.763 8.93042C395.362 9.62052 395.661 10.6296 395.661 11.9578V18.6667H392.927V12.739C392.927 11.808 392.771 11.1114 392.458 10.6492C392.146 10.1869 391.674 9.95581 391.042 9.95581C390.378 9.95581 389.841 10.2423 389.431 10.8152C389.027 11.3816 388.826 12.1108 388.826 13.0027ZM404.46 7.13354V18.6667H401.579V7.13354H397.136V4.90698H408.913V7.13354H404.46ZM411.316 13.9109C411.316 14.9395 411.505 15.7175 411.882 16.2449C412.266 16.7657 412.81 17.0261 413.513 17.0261C413.995 17.0261 414.389 16.922 414.695 16.7136C415.007 16.4988 415.225 16.183 415.349 15.7664L417.937 15.991C417.188 17.905 415.668 18.8621 413.376 18.8621C411.788 18.8621 410.567 18.3933 409.714 17.4558C408.861 16.5118 408.435 15.1381 408.435 13.3347C408.435 11.5899 408.868 10.2488 409.734 9.31128C410.6 8.37378 411.827 7.90503 413.415 7.90503C414.932 7.90503 416.091 8.40959 416.892 9.4187C417.693 10.4213 418.093 11.8927 418.093 13.8328V13.9109H411.316ZM415.437 12.1921C415.385 11.3393 415.18 10.7013 414.822 10.2781C414.464 9.84839 413.982 9.63354 413.376 9.63354C412.732 9.63354 412.234 9.85815 411.882 10.3074C411.537 10.7566 411.355 11.3848 411.335 12.1921H415.437ZM424.587 18.8621C422.986 18.8621 421.749 18.3868 420.876 17.4363C420.004 16.4792 419.568 15.1479 419.568 13.4421C419.568 11.6973 420.007 10.3399 420.886 9.36987C421.765 8.39331 423.012 7.90503 424.626 7.90503C425.87 7.90503 426.898 8.21753 427.712 8.84253C428.526 9.46753 429.037 10.3302 429.245 11.4304L426.482 11.5671C426.404 11.0268 426.208 10.5971 425.896 10.2781C425.583 9.95256 425.141 9.78979 424.568 9.78979C423.858 9.78979 423.327 10.086 422.976 10.6785C422.624 11.2644 422.449 12.1498 422.449 13.3347C422.449 14.5522 422.628 15.4669 422.986 16.0789C423.35 16.6843 423.891 16.9871 424.607 16.9871C425.128 16.9871 425.564 16.8243 425.915 16.4988C426.267 16.1667 426.485 15.6752 426.57 15.0242L429.324 15.1511C429.226 15.8933 428.962 16.5444 428.533 17.1042C428.109 17.6576 427.559 18.0906 426.882 18.4031C426.205 18.7091 425.44 18.8621 424.587 18.8621Z" fill="white"/>
</svg>
