<svg width="163" height="32" viewBox="0 0 163 32" fill="none" xmlns="http://www.w3.org/2000/svg">
<path d="M9.33331 25.3334H6.41998C5.9994 25.3346 5.58565 25.2271 5.21887 25.0212C4.85209 24.8154 4.54474 24.5183 4.32664 24.1587C4.11719 23.7975 4.00644 23.3876 4.0055 22.9701C4.00456 22.5526 4.11348 22.1421 4.32131 21.78L9.59464 12.6667" stroke="#00A63E" stroke-width="2.66667" stroke-linecap="round" stroke-linejoin="round"/>
<path d="M14.6667 25.3333H25.604C26.0226 25.3301 26.4333 25.2192 26.7966 25.0114C27.1599 24.8036 27.4637 24.5058 27.6787 24.1466C27.8852 23.7865 27.9939 23.3785 27.9939 22.9633C27.9939 22.5481 27.8852 22.1401 27.6787 21.78L26.044 18.9533" stroke="#00A63E" stroke-width="2.66667" stroke-linecap="round" stroke-linejoin="round"/>
<path d="M18.6667 21.3333L14.6667 25.3333L18.6667 29.3333" stroke="#00A63E" stroke-width="2.66667" stroke-linecap="round" stroke-linejoin="round"/>
<path d="M11.0574 18.128L9.5947 12.6667L4.13336 14.1307" stroke="#00A63E" stroke-width="2.66667" stroke-linecap="round" stroke-linejoin="round"/>
<path d="M12.4587 7.748L13.916 5.22534C14.1253 4.86053 14.4253 4.55601 14.7869 4.34132C15.1486 4.12663 15.5595 4.00905 15.98 4C16.3973 3.99923 16.8074 4.10822 17.1692 4.31604C17.531 4.52386 17.8318 4.8232 18.0413 5.184L23.2987 14.308" stroke="#00A63E" stroke-width="2.66667" stroke-linecap="round" stroke-linejoin="round"/>
<path d="M17.8373 12.844L23.2987 14.308L24.7613 8.84668" stroke="#00A63E" stroke-width="2.66667" stroke-linecap="round" stroke-linejoin="round"/>
<path d="M49.4453 21.5273C50.3438 21.5273 51.2148 21.3984 52.0586 21.1406C52.9023 20.875 53.5547 20.5391 54.0156 20.1328V17.8477H49.9844V15.293H57.1797V21.3633C56.3047 22.2617 55.1641 22.9648 53.7578 23.4727C52.3594 23.9805 50.8906 24.2344 49.3516 24.2344C47.5625 24.2344 46.043 23.9023 44.793 23.2383C43.5508 22.5664 42.6055 21.5938 41.957 20.3203C41.3086 19.0391 40.9844 17.4883 40.9844 15.668C40.9844 12.9492 41.7109 10.8672 43.1641 9.42188C44.6172 7.96875 46.707 7.24219 49.4336 7.24219C51.3711 7.24219 52.957 7.60156 54.1914 8.32031C55.4258 9.03125 56.3047 10.1055 56.8281 11.543L53.6406 12.5039C53.2969 11.668 52.7578 11.0352 52.0234 10.6055C51.2891 10.1758 50.4258 9.96094 49.4336 9.96094C47.8086 9.96094 46.5742 10.4531 45.7305 11.4375C44.8867 12.4219 44.4648 13.832 44.4648 15.668C44.4648 17.5352 44.8984 18.9805 45.7656 20.0039C46.6406 21.0195 47.8672 21.5273 49.4453 21.5273ZM63.6484 17.7773V24H60.3555V14.2969C60.3555 13.6016 60.3438 13.0234 60.3203 12.5625C60.3047 12.0938 60.2852 11.6797 60.2617 11.3203H63.4023C63.418 11.3906 63.4336 11.5469 63.4492 11.7891C63.4648 12.0312 63.4805 12.3047 63.4961 12.6094C63.5117 12.9062 63.5234 13.1875 63.5312 13.4531C63.5469 13.7188 63.5547 13.9102 63.5547 14.0273H63.6016C63.9141 13.1523 64.1992 12.5234 64.457 12.1406C64.707 11.7734 65.0039 11.5039 65.3477 11.332C65.6914 11.1602 66.1211 11.0742 66.6367 11.0742C67.0586 11.0742 67.3984 11.1328 67.6562 11.25V14.0039C67.1328 13.8867 66.6641 13.8281 66.25 13.8281C65.4297 13.8281 64.7891 14.1602 64.3281 14.8242C63.875 15.4883 63.6484 16.4727 63.6484 17.7773ZM72.4258 18.293C72.4258 19.5273 72.6523 20.4609 73.1055 21.0938C73.5664 21.7188 74.2188 22.0312 75.0625 22.0312C75.6406 22.0312 76.1133 21.9062 76.4805 21.6562C76.8555 21.3984 77.1172 21.0195 77.2656 20.5195L80.3711 20.7891C79.4727 23.0859 77.6484 24.2344 74.8984 24.2344C72.9922 24.2344 71.5273 23.6719 70.5039 22.5469C69.4805 21.4141 68.9688 19.7656 68.9688 17.6016C68.9688 15.5078 69.4883 13.8984 70.5273 12.7734C71.5664 11.6484 73.0391 11.0859 74.9453 11.0859C76.7656 11.0859 78.1562 11.6914 79.1172 12.9023C80.0781 14.1055 80.5586 15.8711 80.5586 18.1992V18.293H72.4258ZM77.3711 16.2305C77.3086 15.207 77.0625 14.4414 76.6328 13.9336C76.2031 13.418 75.625 13.1602 74.8984 13.1602C74.125 13.1602 73.5273 13.4297 73.1055 13.9688C72.6914 14.5078 72.4727 15.2617 72.4492 16.2305H77.3711ZM85.7852 18.293C85.7852 19.5273 86.0117 20.4609 86.4648 21.0938C86.9258 21.7188 87.5781 22.0312 88.4219 22.0312C89 22.0312 89.4727 21.9062 89.8398 21.6562C90.2148 21.3984 90.4766 21.0195 90.625 20.5195L93.7305 20.7891C92.832 23.0859 91.0078 24.2344 88.2578 24.2344C86.3516 24.2344 84.8867 23.6719 83.8633 22.5469C82.8398 21.4141 82.3281 19.7656 82.3281 17.6016C82.3281 15.5078 82.8477 13.8984 83.8867 12.7734C84.9258 11.6484 86.3984 11.0859 88.3047 11.0859C90.125 11.0859 91.5156 11.6914 92.4766 12.9023C93.4375 14.1055 93.918 15.8711 93.918 18.1992V18.293H85.7852ZM90.7305 16.2305C90.668 15.207 90.4219 14.4414 89.9922 13.9336C89.5625 13.418 88.9844 13.1602 88.2578 13.1602C87.4844 13.1602 86.8867 13.4297 86.4648 13.9688C86.0508 14.5078 85.832 15.2617 85.8086 16.2305H90.7305ZM99.7188 17.2031V24H96.4258V14.1562C96.4258 13.4766 96.4141 12.9219 96.3906 12.4922C96.375 12.0547 96.3555 11.6641 96.332 11.3203H99.4727C99.4883 11.4141 99.5078 11.6367 99.5312 11.9883C99.5547 12.332 99.5742 12.6875 99.5898 13.0547C99.6133 13.4141 99.625 13.6758 99.625 13.8398H99.6719C100.117 12.8711 100.676 12.168 101.348 11.7305C102.02 11.293 102.82 11.0742 103.75 11.0742C105.094 11.0742 106.125 11.4883 106.844 12.3164C107.562 13.1445 107.922 14.3555 107.922 15.9492V24H104.641V16.8867C104.641 15.7695 104.453 14.9336 104.078 14.3789C103.703 13.8242 103.137 13.5469 102.379 13.5469C101.582 13.5469 100.938 13.8906 100.445 14.5781C99.9609 15.2578 99.7188 16.1328 99.7188 17.2031ZM118.48 10.1602V24H115.023V10.1602H109.691V7.48828H123.824V10.1602H118.48ZM126.707 18.293C126.707 19.5273 126.934 20.4609 127.387 21.0938C127.848 21.7188 128.5 22.0312 129.344 22.0312C129.922 22.0312 130.395 21.9062 130.762 21.6562C131.137 21.3984 131.398 21.0195 131.547 20.5195L134.652 20.7891C133.754 23.0859 131.93 24.2344 129.18 24.2344C127.273 24.2344 125.809 23.6719 124.785 22.5469C123.762 21.4141 123.25 19.7656 123.25 17.6016C123.25 15.5078 123.77 13.8984 124.809 12.7734C125.848 11.6484 127.32 11.0859 129.227 11.0859C131.047 11.0859 132.438 11.6914 133.398 12.9023C134.359 14.1055 134.84 15.8711 134.84 18.1992V18.293H126.707ZM131.652 16.2305C131.59 15.207 131.344 14.4414 130.914 13.9336C130.484 13.418 129.906 13.1602 129.18 13.1602C128.406 13.1602 127.809 13.4297 127.387 13.9688C126.973 14.5078 126.754 15.2617 126.73 16.2305H131.652ZM142.633 24.2344C140.711 24.2344 139.227 23.6641 138.18 22.5234C137.133 21.375 136.609 19.7773 136.609 17.7305C136.609 15.6367 137.137 14.0078 138.191 12.8438C139.246 11.6719 140.742 11.0859 142.68 11.0859C144.172 11.0859 145.406 11.4609 146.383 12.2109C147.359 12.9609 147.973 13.9961 148.223 15.3164L144.906 15.4805C144.812 14.832 144.578 14.3164 144.203 13.9336C143.828 13.543 143.297 13.3477 142.609 13.3477C141.758 13.3477 141.121 13.7031 140.699 14.4141C140.277 15.1172 140.066 16.1797 140.066 17.6016C140.066 19.0625 140.281 20.1602 140.711 20.8945C141.148 21.6211 141.797 21.9844 142.656 21.9844C143.281 21.9844 143.805 21.7891 144.227 21.3984C144.648 21 144.91 20.4102 145.012 19.6289L148.316 19.7812C148.199 20.6719 147.883 21.4531 147.367 22.125C146.859 22.7891 146.199 23.3086 145.387 23.6836C144.574 24.0508 143.656 24.2344 142.633 24.2344ZM153.953 13.8516C154.398 12.8828 154.957 12.1797 155.629 11.7422C156.301 11.3047 157.102 11.0859 158.031 11.0859C159.375 11.0859 160.406 11.5 161.125 12.3281C161.844 13.1562 162.203 14.3672 162.203 15.9609V24H158.922V16.8984C158.922 15.7812 158.734 14.9453 158.359 14.3906C157.984 13.8359 157.418 13.5586 156.66 13.5586C155.863 13.5586 155.219 13.9023 154.727 14.5898C154.242 15.2695 154 16.1445 154 17.2148V24H150.707V6.60938H154V11.3555C154 11.6367 153.996 11.918 153.988 12.1992C153.98 12.4805 153.969 12.7578 153.953 13.0312C153.945 13.3047 153.93 13.5781 153.906 13.8516H153.953Z" fill="#016630"/>
</svg>
