<svg width="32" height="32" viewBox="0 0 32 32" fill="none" xmlns="http://www.w3.org/2000/svg">
<path d="M9.33334 25.3334H6.42001C5.99943 25.3346 5.58568 25.2271 5.2189 25.0212C4.85212 24.8154 4.54477 24.5183 4.32667 24.1587C4.11722 23.7975 4.00647 23.3876 4.00553 22.9701C4.00459 22.5526 4.11351 22.1421 4.32134 21.78L9.59467 12.6667" stroke="#155DFC" stroke-width="2.66667" stroke-linecap="round" stroke-linejoin="round"/>
<path d="M14.6667 25.3333H25.604C26.0226 25.3301 26.4332 25.2192 26.7966 25.0114C27.1599 24.8036 27.4637 24.5058 27.6787 24.1466C27.8852 23.7865 27.9939 23.3785 27.9939 22.9633C27.9939 22.5481 27.8852 22.1401 27.6787 21.78L26.044 18.9533" stroke="#155DFC" stroke-width="2.66667" stroke-linecap="round" stroke-linejoin="round"/>
<path d="M18.6667 21.3333L14.6667 25.3333L18.6667 29.3333" stroke="#155DFC" stroke-width="2.66667" stroke-linecap="round" stroke-linejoin="round"/>
<path d="M11.0573 18.128L9.59467 12.6667L4.13333 14.1307" stroke="#155DFC" stroke-width="2.66667" stroke-linecap="round" stroke-linejoin="round"/>
<path d="M12.4587 7.748L13.916 5.22534C14.1253 4.86053 14.4253 4.55601 14.7869 4.34132C15.1485 4.12663 15.5595 4.00905 15.98 4C16.3972 3.99923 16.8074 4.10822 17.1692 4.31604C17.531 4.52386 17.8318 4.8232 18.0413 5.184L23.2987 14.308" stroke="#155DFC" stroke-width="2.66667" stroke-linecap="round" stroke-linejoin="round"/>
<path d="M17.8373 12.844L23.2987 14.308L24.7613 8.84668" stroke="#155DFC" stroke-width="2.66667" stroke-linecap="round" stroke-linejoin="round"/>
</svg>
