<svg width="15" height="20" viewBox="0 0 15 20" fill="none" xmlns="http://www.w3.org/2000/svg">
<path d="M4.29607 14.296H2.9551C2.76152 14.2966 2.57107 14.2471 2.40225 14.1523C2.23343 14.0576 2.09196 13.9208 1.99157 13.7553C1.89516 13.5891 1.84418 13.4004 1.84375 13.2082C1.84332 13.016 1.89345 12.8271 1.98912 12.6604L4.41636 8.4657" stroke="#00C950" stroke-width="1.22743" stroke-linecap="round" stroke-linejoin="round"/>
<path d="M6.75098 14.296H11.7853C11.9779 14.2945 12.167 14.2435 12.3342 14.1478C12.5014 14.0522 12.6413 13.9151 12.7402 13.7498C12.8353 13.584 12.8853 13.3962 12.8853 13.2051C12.8853 13.014 12.8353 12.8262 12.7402 12.6605L11.9878 11.3594" stroke="#00C950" stroke-width="1.22743" stroke-linecap="round" stroke-linejoin="round"/>
<path d="M8.59212 12.4548L6.75098 14.296L8.59212 16.1371" stroke="#00C950" stroke-width="1.22743" stroke-linecap="round" stroke-linejoin="round"/>
<path d="M5.08937 10.9795L4.41612 8.4657L1.90234 9.13956" stroke="#00C950" stroke-width="1.22743" stroke-linecap="round" stroke-linejoin="round"/>
<path d="M5.73438 6.20172L6.40517 5.04057C6.50149 4.87265 6.63958 4.73249 6.80603 4.63367C6.97249 4.53485 7.16166 4.48073 7.3552 4.47656C7.54725 4.47621 7.73602 4.52637 7.90256 4.62203C8.0691 4.71769 8.20754 4.85547 8.304 5.02154L10.7239 9.2212" stroke="#00C950" stroke-width="1.22743" stroke-linecap="round" stroke-linejoin="round"/>
<path d="M8.21045 8.54732L10.7242 9.22118L11.3975 6.7074" stroke="#00C950" stroke-width="1.22743" stroke-linecap="round" stroke-linejoin="round"/>
</svg>
